HIERARCHY
ROOT Hips
{
  OFFSET 265.287 66.7526 -254.649
  CHANNELS 6 Xposition Yposition Zposition Zrotation Xrotation Yrotation
  JOINT LeftUpLeg
  {
    OFFSET 8.64259 1.95398 -2.38835
    CHANNELS 3 Zrotation Xrotation Yrotation
    JOINT LeftLeg
    {
      OFFSET 43.7702 0 0
      CHANNELS 3 Zrotation Xrotation Yrotation
      JOINT LeftFoot
      {
        OFFSET 40.6238 0 0
        CHANNELS 3 Zrotation Xrotation Yrotation
        JOINT LeftToeBase
        {
          OFFSET 12.7242 0 0
          CHANNELS 3 Zrotation Xrotation Yrotation
          End Site
          {
            OFFSET 0 0 0
          }
        }
      }
    }
  }
  JOINT RightUpLeg
  {
    OFFSET -8.2249 1.95398 -2.59336
    CHANNELS 3 Zrotation Xrotation Yrotation
    JOINT RightLeg
    {
      OFFSET 43.5653 0 0
      CHANNELS 3 Zrotation Xrotation Yrotation
      JOINT RightFoot
      {
        OFFSET 40.6238 0 0
        CHANNELS 3 Zrotation Xrotation Yrotation
        JOINT RightToeBase
        {
          OFFSET 12.7242 0 0
          CHANNELS 3 Zrotation Xrotation Yrotation
          End Site
          {
            OFFSET 0 0 0
          }
        }
      }
    }
  }
  JOINT Spine
  {
    OFFSET 0.165834 0.87714 6.61349
    CHANNELS 3 Zrotation Xrotation Yrotation
    JOINT Spine1
    {
      OFFSET 7.38963 1.71661e-005 0
      CHANNELS 3 Zrotation Xrotation Yrotation
      JOINT Spine2
      {
        OFFSET 11.9445 1.14441e-005 0
        CHANNELS 3 Zrotation Xrotation Yrotation
        JOINT Spine3
        {
          OFFSET 14.7254 4.19617e-005 0
          CHANNELS 3 Zrotation Xrotation Yrotation
          JOINT Spine4
          {
            OFFSET 10.9679 0 0
            CHANNELS 3 Zrotation Xrotation Yrotation
            JOINT RightShoulder
            {
              OFFSET 2.46616 -1.6653 3.69651
              CHANNELS 3 Zrotation Xrotation Yrotation
              JOINT RightArm
              {
                OFFSET 13.0012 0 0
                CHANNELS 3 Zrotation Xrotation Yrotation
                JOINT RightForeArm
                {
                  OFFSET 28.7848 1.52588e-005 0
                  CHANNELS 3 Zrotation Xrotation Yrotation
                  JOINT RightHand
                  {
                    OFFSET 26.5688 1.52588e-005 0
                    CHANNELS 3 Zrotation Xrotation Yrotation
                    End Site
                    {
                      OFFSET 0 0 0
                    }
                  }
                }
              }
            }
            JOINT LeftShoulder
            {
              OFFSET 2.38034 -1.29275 -3.7523
              CHANNELS 3 Zrotation Xrotation Yrotation
              JOINT LeftArm
              {
                OFFSET 16.3182 6.10351e-005 0
                CHANNELS 3 Zrotation Xrotation Yrotation
                JOINT LeftForeArm
                {
                  OFFSET 27.0901 0 0
                  CHANNELS 3 Zrotation Xrotation Yrotation
                  JOINT LeftHand
                  {
                    OFFSET 24.5451 1.52588e-005 0
                    CHANNELS 3 Zrotation Xrotation Yrotation
                    End Site
                    {
                      OFFSET 0 0 0
                    }
                  }
                }
              }
            }
            JOINT Neck
            {
              OFFSET 5.0226 -0.0266342 0
              CHANNELS 3 Zrotation Xrotation Yrotation
              JOINT Head
              {
                OFFSET 6.69364 2.86102e-005 0
                CHANNELS 3 Zrotation Xrotation Yrotation
                End Site
                {
                  OFFSET 0 0 0
                }
              }
            }
          }
        }
      }
    }
  }
}
MOTION
Frames:	15
Frame Time:	0.0416667
-160.054 92.1708 147.124 97.375 42.8686 86.2824 -176.87 19.4582 87.6098 -7.12263 10.8252 1.96972 57.1793 -0.186699 4.8278 46.126 -5.05703 5.70485 175.857 -6.38252 90.8966 -29.9029 -8.96948 -1.78057 66.6567 1.39267 17.6339 43.3679 -2.06994 2.22533 0.566535 7.72206 -90.5273 11.4332 0.881067 -1.13962 -0.237944 0.830059 -1.17729 -22.7731 1.18282 -0.822146 -2.76049 1.18281 -0.822145 101.403 -47.5395 -83.3905 29.2209 -6.24352 -7.33193 -9.86193 -11.2783 -43.8026 -14.8889 -0.477834 -1.49346 -81.5254 -53.6955 91.5185 -30.6491 3.26907 1.07211 8.03926 31.2189 -8.3261 -6.49986 -0.21845 -0.821224 7.92271 4.46095 -7.48296 -13.7024 4.71458 13.7306 
-152.064 91.0567 139.036 98.4923 41.5003 84.3632 -177.991 20.6344 85.8971 -20.308 16.6846 2.35759 49.3111 -3.58548 10.7466 45.8596 -5.05416 3.29884 174.074 -7.70123 86.6735 -37.4299 -12.1319 -2.38888 51.0315 6.0212 22.6999 50.3284 -2.40242 10.6663 0.622881 7.73901 -90.1238 11.4001 1.18173 -0.364075 -0.270335 1.16458 -0.415751 -22.81 1.23652 0.00796046 -2.79734 1.23651 0.00796784 101.536 -48.4459 -83.1668 30.3661 -6.3209 -5.23687 -10.9436 -13.8254 -42.2555 -14.1333 -0.5373 -0.793198 -81.2673 -52.1864 91.8035 -30.817 3.33365 0.577074 8.38755 30.5881 -8.90953 -6.09642 -0.219846 -0.409772 9.12085 4.9197 -9.82768 -15.6638 5.54787 13.4623 
-144.764 90.625 131.775 101.846 42.6253 79.2773 -178.158 18.0219 82.3221 -33.2633 17.4419 1.90534 57.6695 0.169532 17.1356 38.2863 -2.91313 -2.14626 173.045 1.5852 82.694 -59.4769 -14.5425 -2.91115 37.0122 10.3643 20.9985 27.9082 -0.193238 3.37334 0.260153 7.96478 -89.6525 10.9394 0.678761 0.626393 -0.731542 0.705663 0.595909 -23.266 0.459138 0.801421 -3.25339 0.45912 0.801416 101.902 -48.9253 -82.5804 32.4492 -6.27685 -3.59615 -8.44511 -15.6195 -34.9844 -14.7857 -0.715983 0.46628 -81.7923 -51.5761 90.9865 -28.9418 5.05355 -4.61322 8.18811 29.4492 -9.58387 -5.22926 -0.18151 -0.780066 9.20579 5.76528 -10.8166 -15.6249 6.42069 15.2264 
-137.764 92.0456 124.869 103.21 44.9641 79.8918 -177.95 10.2699 83.9415 -33.4799 19.343 3.07891 64.2645 3.97522 18.2229 37.1303 -2.50919 -2.15986 172.699 13.9908 86.0175 -69.885 -13.9565 -1.95915 42.0269 8.65377 16.0859 32.0505 -0.186558 -3.25279 -0.112243 7.96845 -89.8665 10.9392 -0.161499 0.282752 -0.731786 -0.148919 0.289588 -23.267 -0.239003 0.221149 -3.25436 -0.239026 0.221138 101.568 -48.8001 -83.1101 33.3092 -5.57184 -2.15901 -4.99998 -17.6514 -25.2573 -14.7045 -0.881949 1.8308 -82.0773 -51.8496 90.5815 -25.7143 7.93527 -13.0242 8.60496 27.9882 -12.1858 -2.31119 -0.0810072 0.210461 6.986 6.8084 -10.3561 -15.4819 7.05817 16.3849 
-131.007 93.4833 118.585 103.334 49.731 81.6258 -177.099 3.39065 86.9353 -30.9244 22.7451 4.28875 66.9677 5.74867 16.6274 37.2998 -2.56038 -2.28865 170.414 21.0014 88.5828 -59.318 -8.07006 0.812537 51.2435 4.88583 14.696 34.2396 -0.691931 -1.50362 -0.530133 7.87343 -90.1546 11.1264 -1.12682 -0.198131 -0.54403 -1.13443 -0.148346 -23.0824 -1.01518 -0.527663 -3.06975 -1.01513 -0.527656 101.35 -49.709 -83.4416 32.9559 -2.89589 1.60283 -3.86633 -19.5628 -19.6784 -12.5961 -0.881731 3.03984 -81.9461 -50.0945 90.649 -24.0699 10.4704 -21.4921 10.6547 24.2914 -18.3244 0.956894 -0.00922459 -1.57246 7.6031 6.03792 -11.083 -16.8535 6.36982 15.8492 
-124.392 94.3484 112.669 103.068 53.9686 80.9461 -176.573 -3.04979 87.2395 -26.6109 24.8278 4.82459 67.1795 5.99719 14.0767 39.2039 -3.2331 0.977805 171.9 20.2691 87.03 -30.6174 -1.76781 2.32583 54.1112 4.28743 15.4201 38.9965 -1.42233 -2.09342 -0.8448 7.85839 -90.1368 11.1574 -1.74498 -0.102381 -0.512342 -1.74778 -0.0254735 -23.056 -1.63352 -0.622221 -3.04335 -1.63351 -0.622227 101.794 -50.5936 -82.7416 32.9397 0.0132177 4.33042 -3.1324 -20.1757 -15.3148 -11.6134 -0.829705 3.13591 -82.1016 -49.1863 90.3427 -21.6429 11.338 -28.7036 11.8321 17.0285 -25.699 4.01845 0.0402395 -2.02796 8.96962 4.76269 -10.8579 -17.0527 5.28534 14.8006 
-117.399 94.4185 106.497 102.465 57.5108 79.4965 -176.969 -8.15015 88.7948 -25.7409 28.0698 6.2905 64.28 4.33539 10.5356 45.2049 -4.87986 3.75658 175.633 16.9285 84.2644 -5.78523 6.42059 -0.26502 54.7688 5.04619 18.2343 40.5915 -1.68998 -2.61921 -1.03146 7.74335 -90.0278 11.3888 -2.06527 0.152649 -0.280497 -2.05655 0.243419 -22.8283 -2.01565 -0.475377 -2.81565 -2.01563 -0.475375 102.296 -50.6373 -81.9641 33.8192 2.34816 7.68565 -3.06998 -18.2755 -13.1235 -9.64484 -0.585755 1.98782 -82.5604 -48.9574 89.6205 -19.6264 11.9387 -33.4634 14.2594 16.3513 -31.473 5.14539 0.0315421 -2.53578 8.55808 3.43744 -9.9528 -16.0252 3.94525 14.2729 
-109.122 93.2762 99.2426 102.827 56.5862 79.838 -178.269 -10.6391 90.2131 -33.2404 28.1598 8.15423 57.6882 0.651652 5.4808 56.6669 -8.1169 3.61959 176.045 18.6172 85.6268 -12.5586 -1.2548 -0.0584985 49.4994 7.47182 15.0345 41.2127 -1.77004 -2.59404 -0.886891 7.74319 -90.3591 11.3838 -1.93213 -0.520367 -0.2858 -1.95317 -0.434802 -22.8294 -1.6864 -1.07713 -2.81674 -1.68642 -1.07713 101.8 -50.2563 -82.7345 32.8683 2.92258 8.41751 -1.83712 -18.4572 -10.4173 -12.4988 -0.916209 3.43 -82.5391 -49.7846 89.7231 -20.7312 12.3106 -30.9207 15.8203 15.5308 -35.0195 5.82608 -0.0540656 -3.8692 11.5897 3.08582 -6.71523 -17.5576 2.84599 14.3848 
-100.855 92.3254 91.9846 103.108 55.3934 82.5589 -178.694 -4.70655 94.3959 -47.3311 15.264 6.35729 37.7075 -5.50283 -6.95739 50.5299 -7.58224 -9.17918 175.631 20.8108 89.5184 -29.3128 -8.0045 1.52863 53.6659 6.76285 8.69614 32.9611 -0.687993 1.05684 -0.82254 7.67286 -90.9705 11.5102 -2.09014 -1.71965 -0.160072 -2.16379 -1.626 -22.6938 -1.47682 -2.2682 -2.68112 -1.47683 -2.2682 101.923 -49.9493 -82.5436 30.736 3.0287 6.06198 -1.19237 -17.6957 -9.14907 -14.4694 -1.21412 4.6568 -83.0363 -50.6706 89.051 -24.0823 12.6554 -22.7321 15.5886 17.1758 -32.9356 4.85546 -0.0248235 -3.3297 12.7486 3.70259 -5.25525 -17.7761 3.02466 15.2205 
-93.6435 92.9836 85.5383 104.447 55.0149 82.2319 178.777 7.6437 94.7433 -64.6613 7.95685 4.50187 42.489 -3.84297 3.09819 51.777 -7.1833 -0.860388 175.344 15.6276 91.1977 -34.4132 -5.22823 1.80512 62.8421 3.70183 10.252 29.7376 -0.233706 0.886543 -0.640566 7.86624 -91.1078 11.1249 -1.78949 -2.03097 -0.546319 -1.87711 -1.95028 -23.0732 -1.09657 -2.47467 -3.06057 -1.09659 -2.47467 102.299 -49.6395 -81.9566 30.5735 0.828702 1.8956 -1.09044 -11.0222 -13.5989 -15.9883 -1.1351 3.10343 -83.534 -50.8215 88.3181 -26.6805 12.6616 -19.8511 12.5633 23.6643 -22.9978 -0.0347057 -0.0426274 -2.25993 15.5769 2.45792 -7.4895 -18.7942 2.44598 14.8768 
-86.5683 94.4613 79.2677 102.459 50.6642 80.8672 -178.146 16.3267 88.0767 -59.764 8.60025 1.90395 52.0771 -0.276762 5.42083 49.4167 -6.21207 1.79295 176.107 9.55602 89.9428 -33.3214 -5.99928 -0.521098 67.2573 2.50343 12.3338 30.7021 -0.383907 1.0555 -0.0885028 7.81424 -90.6311 11.2415 -0.469767 -1.21103 -0.429961 -0.522603 -1.18919 -22.9604 -0.0841274 -1.29621 -2.94775 -0.0841206 -1.29621 102.202 -49.2444 -82.1074 30.1689 -3.02869 -0.778566 -1.39427 -9.48269 -22.989 -20.2039 -1.37941 2.77172 -83.5165 -51.0539 88.3673 -28.5735 10.7073 -15.1017 9.22276 29.0676 -14.1246 -3.86604 -0.135768 -1.34993 13.0317 1.84806 -7.82959 -16.701 2.18882 13.792 
-80.3074 95.1605 73.2681 100.723 47.6163 81.4741 -176.503 17.8565 86.6769 -34.4752 8.1118 0.575408 54.4884 0.730086 7.45298 50.4023 -6.27644 4.15237 175.967 2.85494 89.2085 -29.8249 -6.91758 -1.34156 70.46 0.478283 13.0062 30.409 -0.378971 1.43283 0.200011 7.80204 -90.4406 11.2695 0.193005 -0.896114 -0.401749 0.153362 -0.903729 -22.935 0.453381 -0.79669 -2.92237 0.453383 -0.796685 102.195 -48.5825 -82.1175 29.298 -5.12875 -4.14713 -4.84343 -10.8711 -32.8431 -17.3998 -0.867989 0.488119 -83.2611 -52.1452 88.8528 -29.6276 6.67971 -7.74433 8.36202 29.0644 -10.6261 -4.57223 -0.161818 -0.622773 12.6574 2.07666 -6.82529 -15.9484 2.26424 13.4225 
-73.9557 94.9363 66.9882 98.9864 45.6738 84.0469 -177.004 17.062 87.8167 -8.39814 10.8342 2.2167 55.2656 -0.216185 6.59249 46.9307 -5.2069 6.65041 176.005 -2.61323 90.4551 -27.9807 -7.01901 -1.58836 69.6678 0.221259 13.9645 37.0903 -1.23713 0.870503 0.361764 7.806 -90.4635 11.2632 0.504271 -0.972815 -0.408044 0.460956 -0.994069 -22.942 0.773306 -0.776313 -2.92932 0.773318 -0.7763 101.622 -48.2413 -83.0311 29.117 -5.91751 -7.13066 -6.71559 -9.59186 -39.5025 -16.5877 -0.571724 -1.21123 -83.0762 -52.1548 89.1271 -30.7315 3.97282 -2.2385 8.41201 29.1945 -9.28558 -4.2809 -0.141459 -1.31254 13.6712 1.97942 -7.0847 -16.0556 2.20244 14.1402 
-67.1762 93.9578 59.6506 98.6944 43.095 85.3253 -176.032 18.7027 89.2033 -7.56376 10.7097 2.24251 56.4434 -0.655832 3.08176 46.7941 -5.16759 6.82172 175.746 -6.78521 89.9774 -30.6713 -11.839 -2.5493 65.2845 1.05643 15.4984 47.5834 -2.58475 0.679616 0.626856 7.82048 -90.4571 11.2377 1.03492 -1.01259 -0.433283 0.989345 -1.05717 -22.9703 1.29138 -0.654734 -2.95762 1.29139 -0.654741 101.422 -48.6728 -83.3442 28.5523 -5.57075 -8.11445 -7.54046 -10.5259 -39.9062 -16.8216 -0.539707 -1.49702 -82.4991 -53.1466 90.0601 -29.7457 3.82416 0.19331 8.46081 29.7752 -9.79065 -6.02442 -0.19629 -1.04342 13.001 1.75201 -6.28189 -14.6912 1.97403 13.4559 
-59.901 92.7189 51.1374 100.262 43.2588 82.4624 -177.827 19.3567 86.589 -21.478 15.6391 2.66856 51.0499 -2.72494 10.3467 44.6047 -4.75145 2.94881 173.436 -6.89787 85.1923 -40.4095 -13.0331 -2.93334 49.4892 6.25613 20.9818 49.324 -2.83667 10.5023 0.576708 7.77631 -90.0867 11.3239 1.10728 -0.28489 -0.346597 1.09365 -0.333356 -22.8856 1.14167 0.0611017 -2.87297 1.14169 0.0610986 101.745 -49.0535 -82.83 29.5951 -5.1179 -5.17896 -6.63889 -12.9317 -34.4381 -18.2423 -0.79643 -0.141049 -82.4458 -52.099 90.0546 -30.1097 3.29615 0.56988 8.6999 29.4341 -9.82124 -5.8434 -0.184046 -1.27689 12.3008 0.995347 -6.45929 -15.0066 1.30036 12.497 
